<svg width="251" height="37" viewBox="0 0 251 37" fill="none" xmlns="http://www.w3.org/2000/svg">
<path d="M0 18.5018C0 8.28856 8.27773 0 18.4982 0C28.7235 0 36.9988 8.28495 36.9988 18.5018C36.9988 28.7175 28.7235 37 18.4982 37C8.27773 37 0 28.7175 0 18.5018ZM18.4982 34.9381C27.5824 34.9381 34.9417 27.5824 34.9417 18.5018C34.9417 9.42243 27.5824 2.06552 18.4982 2.06552C9.41521 2.06552 2.0583 9.42243 2.0583 18.5018C2.0583 27.5824 9.41521 34.9381 18.4982 34.9381Z" fill="#0C2577"/>
<path d="M18.4992 4.10938C10.5501 4.10938 4.11035 10.5563 4.11035 18.5006C4.11035 26.4461 10.5501 32.8894 18.4992 32.8894C26.4483 32.8894 32.8844 26.4461 32.8844 18.5006C32.8844 10.5563 26.4483 4.10938 18.4992 4.10938ZM27.6472 22.9494C27.6436 25.9225 25.2253 28.3323 22.2498 28.3323C19.2707 28.3323 16.8573 25.9189 16.8573 22.9302C16.8573 21.7517 17.2389 20.6588 17.8925 19.7633L15.6922 16.7444H13.4618V20.4542H11.0965V9.66678H17.009C18.9638 9.66678 20.5466 11.2448 20.5466 13.2044C20.5466 14.638 19.6884 15.8778 18.4498 16.4267L19.7173 18.1756C20.4732 17.7712 21.335 17.5437 22.2498 17.5437C23.9121 17.5437 25.3951 18.2924 26.3833 19.466L24.6139 20.9573C24.0457 20.2845 23.1959 19.8523 22.2498 19.8523C20.5502 19.8523 19.1696 21.2378 19.1696 22.9302C19.1696 24.6418 20.5502 26.0248 22.2498 26.0248C23.4595 26.0248 24.5092 25.3195 25.0111 24.3072H22.5062V22.2513H27.6472V22.9494Z" fill="#0C2577"/>
<path d="M16.715 11.7263L13.4614 11.7227V14.6849L16.715 14.6813C17.5311 14.6813 18.1895 14.0205 18.1895 13.2044C18.1895 12.3859 17.5311 11.7263 16.715 11.7263Z" fill="#0C2577"/>
<path d="M55.1574 27.4765C54.6807 27.4765 54.2679 27.45 53.8574 27.4247C53.4518 27.3983 53.0473 27.3742 52.5827 27.3742C52.1337 27.3742 51.7474 27.3983 51.3562 27.4247C50.9385 27.45 50.5184 27.4765 50.0261 27.4765C49.8154 27.4765 49.4194 27.4765 49.4194 27.0805C49.4194 26.6556 49.8913 26.599 50.2355 26.5581C51.0853 26.4798 51.3983 26.1633 51.3983 25.3929V11.4386C51.3983 10.9078 51.0769 10.6358 50.3234 10.531C50.1826 10.519 49.7444 10.4841 49.7444 10.058C49.7444 9.61023 50.3029 9.61023 50.4883 9.61023C50.8302 9.61023 51.2418 9.62588 51.6968 9.64153C52.2505 9.6644 52.8716 9.68727 53.4999 9.68727C53.9742 9.68727 54.6711 9.67643 55.5004 9.65838L56.0577 9.64995C57.1663 9.6319 58.4519 9.61023 59.7374 9.61023C60.3236 9.61023 60.5872 9.81847 60.6185 10.3023L60.9399 13.6438C60.9411 14.0073 60.7292 14.106 60.6366 14.1289H60.6317C60.2899 14.1289 60.1864 13.8725 60.1093 13.6847C59.0537 11.1377 57.9355 10.6863 55.3187 10.6863C54.2582 10.6863 53.7864 11.0739 53.7864 11.949V25.3424C53.7864 26.2006 54.0729 26.4377 55.2453 26.5581C55.4836 26.5761 55.9253 26.6134 55.9253 27.0299C55.9253 27.4765 55.5004 27.4765 55.1574 27.4765Z" fill="#0C2577"/>
<path d="M73.6944 27.4536C72.859 27.4536 71.8804 27.4343 70.8982 27.4175L70.6599 27.4139C69.6139 27.3934 68.5799 27.3741 67.7193 27.3741C67.4377 27.3741 67.1115 27.3934 66.7792 27.4127C66.3868 27.4343 66.0655 27.4536 65.7862 27.4536C65.466 27.4536 64.9316 27.4536 64.9316 27.0215C64.9316 26.6748 65.2855 26.5894 65.4191 26.5556C66.4386 26.3474 66.5397 26.2018 66.5397 25.6697V15.4938C66.5397 14.78 66.3796 14.5236 65.4239 14.4129C64.9448 14.3575 64.8413 14.1156 64.8413 13.9242C64.8413 13.7027 65.1085 13.5342 65.4636 13.5342H73.8918C74.2589 13.5342 74.4961 13.7581 74.4961 14.1036V16.3881C74.4961 16.6987 74.3095 16.8612 74.1253 16.8612C73.9315 16.8612 73.763 16.724 73.6294 16.4531C73.2021 15.3879 72.8362 14.4767 71.2437 14.4767H68.8098C68.6461 14.4767 68.3753 14.5164 68.3753 14.7993V19.1133C68.3753 19.2457 68.3874 19.3191 68.6305 19.3191H70.5094C71.6096 19.3191 71.9647 19.0326 72.3306 17.8627C72.4137 17.5208 72.6123 17.4474 72.7639 17.4474C73.0348 17.4474 73.172 17.6544 73.172 18.0589C73.172 18.3188 73.1515 18.5548 73.1299 18.8099C73.107 19.0988 73.0829 19.413 73.0829 19.8271C73.0829 20.2026 73.1034 20.4963 73.1251 20.7924C73.1479 21.0885 73.172 21.3858 73.172 21.7566C73.172 22.1466 72.9421 22.2862 72.7483 22.2862C72.5232 22.2862 72.327 22.1165 72.2728 21.8781C72.0345 20.4096 71.5518 20.258 70.5094 20.258H68.5956C68.4945 20.258 68.3753 20.2929 68.3753 20.4638V25.0944C68.3753 25.9574 69.0373 26.4317 70.2422 26.4317C72.8362 26.4317 73.5921 25.9899 74.2818 24.0568C74.3661 23.8642 74.5057 23.7679 74.6947 23.7679C74.8981 23.7679 75.0485 23.916 75.0485 24.1206L74.7789 26.9216C74.7139 27.3693 74.3468 27.4536 73.6944 27.4536Z" fill="#0C2577"/>
<path d="M89.0565 31.2067C88.9313 31.2067 88.8145 31.132 88.7628 31.0177C88.6858 30.9082 88.6942 30.7204 88.7953 30.4712C89.1299 29.536 89.5151 27.9302 89.5151 27.4608C89.5151 27.3152 89.367 27.2947 89.2768 27.2947C88.9313 27.2947 88.5883 27.3115 88.2404 27.332C87.8444 27.3549 87.458 27.3741 87.0415 27.3741H82.9249C82.6324 27.3741 82.3111 27.3525 82.0174 27.3284C81.773 27.3103 81.5479 27.2947 81.3686 27.2947C81.2109 27.2947 81.1158 27.3573 81.1158 27.4608C81.1158 27.9339 81.4588 29.536 81.8476 30.4664C81.8886 30.5723 81.9668 30.8335 81.8862 31.0177C81.785 31.1742 81.6659 31.2067 81.5804 31.2067C81.5094 31.2067 81.4023 31.1802 81.2963 31.0658C81.1543 30.8841 80.9882 30.6782 80.8052 30.4508C79.545 28.898 78.6519 27.7557 78.6519 27.1816C78.6519 26.7181 78.9781 26.552 79.2573 26.552C80.006 26.5015 80.5741 25.8178 80.7908 25.4206C82.7769 21.9034 84.6691 18.4717 85.9871 15.1857C86.0545 14.9955 86.0605 14.8258 86.0605 14.762C86.0605 14.6187 86.0605 14.378 84.7738 14.2973C84.5692 14.2793 84.2177 14.248 84.2177 13.8857C84.2177 13.4752 84.6233 13.4752 84.84 13.4752C85.1903 13.4752 85.5827 13.4861 85.9955 13.4957L86.2002 13.5005C86.7238 13.5186 87.2666 13.5354 87.7746 13.5354C88.3921 13.5354 88.9975 13.5186 89.5343 13.5029L89.7041 13.4981C90.1386 13.4861 90.5238 13.4752 90.8151 13.4752C91.0173 13.4752 91.4903 13.4752 91.4903 13.8652C91.4903 14.2468 91.1413 14.2793 90.9523 14.2973C90.2722 14.3539 89.9893 14.5694 89.9893 15.0195V25.9297C89.9893 26.3522 90.7766 26.5424 91.4518 26.5749C91.8298 26.6134 92.0296 26.8241 92.0296 27.1816C92.0296 27.722 91.2496 28.7102 90.1494 30.0451L90.0327 30.1884C89.7715 30.5061 89.5259 30.8058 89.3418 31.0526C89.2671 31.1525 89.1672 31.2067 89.0565 31.2067ZM87.7806 14.6151C87.4556 14.632 87.2341 14.845 87.0403 15.3301C85.5321 18.8268 83.6411 22.4992 81.5696 25.9478C81.4552 26.1139 81.4372 26.1536 81.4372 26.3462C81.4372 26.4485 81.6346 26.552 82.0149 26.552H87.1848C88.1537 26.552 88.1537 26.0994 88.1537 25.9297V15.2579C88.1537 14.6163 87.9034 14.6151 87.7806 14.6151Z" fill="#0C2577"/>
<path d="M105.899 27.4536C105.065 27.4536 104.088 27.4343 103.106 27.4175L102.863 27.4139C101.819 27.3934 100.783 27.3741 99.9232 27.3741C99.6427 27.3741 99.3141 27.3934 98.9843 27.4127C98.5835 27.4355 98.2681 27.4536 97.9913 27.4536C97.6711 27.4536 97.1367 27.4536 97.1367 27.0215C97.1367 26.6748 97.4785 26.5918 97.6254 26.5556C98.6376 26.3474 98.7472 26.1945 98.7472 25.6697V15.4938C98.7472 14.78 98.5871 14.5236 97.629 14.4129C97.1499 14.3587 97.0464 14.1168 97.0464 13.9242C97.0464 13.7027 97.3136 13.5342 97.6699 13.5342H106.096C106.469 13.5342 106.701 13.7533 106.701 14.1036V16.3881C106.701 16.6987 106.513 16.8612 106.328 16.8612C106.137 16.8612 105.969 16.724 105.836 16.4531C105.407 15.3879 105.04 14.4767 103.448 14.4767H101.016C100.852 14.4767 100.583 14.5164 100.583 14.7993V19.1133C100.583 19.2457 100.594 19.3191 100.836 19.3191H102.715C103.816 19.3191 104.172 19.0326 104.533 17.8627C104.619 17.5208 104.816 17.4474 104.968 17.4474C105.239 17.4474 105.377 17.6544 105.377 18.0589C105.377 18.3188 105.357 18.5548 105.335 18.8099C105.312 19.1133 105.286 19.4226 105.286 19.8271C105.286 20.1665 105.306 20.4409 105.323 20.707C105.353 21.0885 105.377 21.3858 105.377 21.7566C105.377 22.1466 105.147 22.2862 104.951 22.2862C104.725 22.2862 104.531 22.1165 104.478 21.8769C104.24 20.4096 103.757 20.258 102.715 20.258H100.799C100.7 20.258 100.583 20.2929 100.583 20.4638V25.0944C100.583 25.9574 101.242 26.4317 102.447 26.4317C105.04 26.4317 105.795 25.9899 106.488 24.0568C106.571 23.8642 106.711 23.7679 106.901 23.7679C107.102 23.7679 107.255 23.9196 107.255 24.1206L106.984 26.9216C106.918 27.3693 106.551 27.4536 105.899 27.4536Z" fill="#0C2577"/>
<path d="M119.037 27.6534C115.701 27.6534 112.099 24.8825 112.099 20.4048C112.099 16.1907 115.766 13.2537 119.056 13.2537C123.023 13.2537 126.014 16.4062 126.014 20.5829C126.014 24.4805 122.884 27.6534 119.037 27.6534ZM119.056 14.1384C116.41 14.1384 114.257 16.8058 114.257 20.087C114.257 23.8353 116.387 26.7699 119.108 26.7699C121.815 26.7699 123.854 24.0688 123.854 20.4854C123.854 16.925 121.747 14.1384 119.056 14.1384Z" fill="#0C2577"/>
<path d="M143.361 27.4536C143.104 27.4536 142.819 27.4367 142.508 27.4175C142.112 27.3946 141.724 27.3742 141.305 27.3742C140.792 27.3742 140.314 27.3994 139.91 27.4187C139.61 27.4392 139.346 27.4536 139.138 27.4536C138.868 27.4536 138.499 27.4536 138.499 27.0636C138.499 26.8241 138.689 26.6856 139.063 26.6519C140.313 26.5665 140.413 26.3101 140.413 26.008V20.7431C140.413 20.5132 140.345 20.3988 140.212 20.3988H134.307C134.152 20.3988 134.035 20.4217 134.035 20.7431V25.9707C134.035 26.3185 134.132 26.5689 135.393 26.6519C135.823 26.6905 135.915 26.8951 135.915 27.0636C135.915 27.4536 135.535 27.4536 135.309 27.4536C134.999 27.4536 134.671 27.4355 134.325 27.4163C133.935 27.3946 133.545 27.3742 133.144 27.3742C132.694 27.3742 132.281 27.3982 131.912 27.4187C131.605 27.4367 131.327 27.4536 131.087 27.4536C130.946 27.4536 130.519 27.4536 130.519 27.0636C130.519 26.7928 130.748 26.6399 131.201 26.6122C132.125 26.5496 132.2 26.2499 132.2 25.89V15.0569C132.2 14.5718 132.119 14.3973 131.199 14.3347C131.014 14.3238 130.519 14.2961 130.519 13.8857C130.519 13.6979 130.616 13.474 131.087 13.474C131.528 13.474 131.878 13.4885 132.211 13.5089C132.583 13.5234 132.844 13.5342 133.144 13.5342C133.537 13.5342 133.988 13.5162 134.403 13.4993C134.813 13.4837 135.117 13.474 135.345 13.474C135.531 13.474 135.968 13.474 135.968 13.864C135.968 14.2456 135.615 14.2781 135.428 14.2961C134.095 14.378 134.035 14.6151 134.035 15.0569V19.1723C134.035 19.4756 134.205 19.4756 134.287 19.4756H140.194C140.323 19.4756 140.413 19.4587 140.413 19.2108V15.0196C140.413 14.638 140.317 14.3599 139.041 14.2961C138.835 14.2781 138.482 14.248 138.482 13.8857C138.482 13.474 138.913 13.474 139.12 13.474C139.415 13.474 139.711 13.4837 140.013 13.4957C140.52 13.5186 140.914 13.5342 141.341 13.5342C141.76 13.5342 142.117 13.5186 142.455 13.5017C142.841 13.4837 143.095 13.474 143.361 13.474C143.84 13.474 143.912 13.7196 143.912 13.864C143.912 14.2986 143.463 14.3226 143.246 14.3347C142.334 14.3973 142.248 14.5706 142.248 15.0196V26.008C142.248 26.268 142.324 26.5496 143.247 26.6122C143.411 26.6219 143.912 26.658 143.912 27.0636C143.912 27.3212 143.727 27.4536 143.361 27.4536Z" fill="#0C2577"/>
<path d="M164.843 27.4753C164.363 27.4753 163.88 27.4512 163.398 27.4235C162.927 27.3983 162.463 27.3742 162.011 27.3742C161.554 27.3742 161.15 27.3983 160.741 27.4235C160.287 27.4512 159.846 27.4753 159.341 27.4753C158.909 27.4753 158.688 27.3248 158.688 27.0287C158.688 26.5485 159.312 26.516 159.517 26.5063C160.92 26.4088 160.92 25.8732 160.92 25.6722V11.3616C160.92 10.9186 160.814 10.7092 159.78 10.5804C159.452 10.5419 159.08 10.4937 159.08 10.058C159.08 9.76189 159.324 9.61023 159.804 9.61023C160.214 9.61023 160.594 9.62708 160.966 9.64393C161.511 9.66801 161.893 9.68606 162.286 9.68606C162.7 9.68606 163.146 9.66801 163.6 9.64995L163.815 9.64273C164.253 9.62708 164.703 9.61023 165.138 9.61023C168.154 9.61023 170.346 11.7456 170.346 14.685C170.346 17.6581 167.998 19.9101 165.901 19.9378C165.052 19.9378 164.009 19.9378 163.054 19.1542L163.169 25.6722C163.169 26.0345 163.303 26.4317 164.922 26.5557C165.115 26.5725 165.588 26.6183 165.588 27.0287C165.588 27.4753 165.12 27.4753 164.843 27.4753ZM164.472 10.507C163.27 10.507 163.169 10.9078 163.169 11.287V17.6219C163.169 18.2142 164.252 18.7329 164.909 18.7329C166.691 18.7329 167.983 17.1381 167.983 14.9401C167.983 12.8939 167.065 10.507 164.472 10.507Z" fill="#0C2577"/>
<path d="M188.279 27.4536C187.922 27.4536 187.614 27.4343 187.305 27.4175C186.931 27.3934 186.619 27.3742 186.259 27.3742C185.946 27.3742 185.678 27.3886 185.407 27.4067C184.983 27.4307 184.658 27.4536 184.254 27.4536C184.104 27.4536 183.706 27.4536 183.706 27.0419C183.706 26.7892 183.928 26.6447 184.365 26.6122C185.263 26.5508 185.387 26.2848 185.387 26.008V15.737C185.37 15.767 178.979 26.2475 178.979 26.2475C179.018 26.333 179.076 26.5845 180.1 26.6519C180.567 26.7013 180.637 26.9312 180.637 27.0636C180.637 27.4536 180.233 27.4536 180.017 27.4536C179.636 27.4536 179.343 27.4343 179.06 27.4163C178.738 27.391 178.466 27.3742 178.116 27.3742C177.797 27.3742 177.527 27.3898 177.253 27.4067C176.831 27.4307 176.491 27.4536 176.062 27.4536C175.566 27.4536 175.491 27.2092 175.491 27.0636C175.491 26.9131 175.58 26.6556 176.171 26.6122C177.052 26.5508 177.173 26.2006 177.173 25.8298V15.0569C177.173 14.5513 177.043 14.3948 176.171 14.3347C175.985 14.3226 175.491 14.2937 175.491 13.9049C175.491 13.6197 175.695 13.474 176.097 13.474C176.512 13.474 176.845 13.4885 177.163 13.5065C177.485 13.5222 177.773 13.5342 178.116 13.5342C178.475 13.5342 178.774 13.5186 179.069 13.5041C179.367 13.4873 179.664 13.474 180.017 13.474C180.248 13.474 180.637 13.474 180.637 13.8857C180.637 14.2528 180.276 14.2841 180.1 14.2961C179.008 14.3648 179.008 14.4695 179.008 15.0569V24.3999C179.008 24.5347 179.026 24.5768 179.026 24.5768L185.024 14.3491H185.016C184.91 14.3491 184.671 14.2901 184.388 14.2757C184.171 14.2624 183.722 14.2323 183.722 13.864C183.722 13.474 184.053 13.474 184.273 13.474C184.69 13.474 185.047 13.4885 185.398 13.5065C185.736 13.5222 186.054 13.5342 186.403 13.5342C186.678 13.5342 186.943 13.5222 187.214 13.5065C187.536 13.4885 187.853 13.474 188.209 13.474C188.448 13.474 188.847 13.474 188.847 13.8857C188.847 14.0735 188.751 14.2986 188.298 14.2986C187.303 14.2986 187.222 14.6536 187.222 15.0196V26.008C187.222 26.3739 187.222 26.5737 188.348 26.6519C188.848 26.7049 188.923 26.9444 188.923 27.0817C188.923 27.4536 188.55 27.4536 188.279 27.4536Z" fill="#0C2577"/>
<path d="M206.352 27.4536C206.048 27.4536 205.773 27.4307 205.503 27.4127C205.186 27.3898 204.952 27.3742 204.704 27.3742C204.262 27.3742 203.86 27.397 203.498 27.4163C203.136 27.4367 202.842 27.4536 202.56 27.4536C202.287 27.4536 201.779 27.4536 201.779 27.0215C201.779 26.865 201.855 26.5954 202.367 26.5532C203.209 26.463 203.28 26.333 203.28 26.2066C203.28 26.1271 203.235 26.0272 203.141 25.9069L200.199 21.4833C200.192 21.4593 200.183 21.4472 200.171 21.4472C200.148 21.4472 200.121 21.4857 200.08 21.5363L197.495 25.4398C197.328 25.6914 197.241 25.9033 197.241 26.0682C197.241 26.1994 197.241 26.4678 198.245 26.5532C198.458 26.5737 198.959 26.6231 198.959 27.0215C198.959 27.4536 198.516 27.4536 198.302 27.4536C198.007 27.4536 197.701 27.4343 197.399 27.4175C196.965 27.3898 196.672 27.3742 196.388 27.3742C196.136 27.3742 195.891 27.391 195.631 27.4091C195.319 27.4307 195.019 27.4536 194.686 27.4536C194.339 27.4536 193.905 27.4536 193.905 27.0034C193.905 26.8987 193.946 26.6495 194.319 26.5557C195.214 26.4112 195.856 26.1945 196.301 25.5409L199.538 20.6937C199.558 20.5493 199.538 20.4915 199.437 20.3627L196.047 15.3421C195.551 14.5802 195.22 14.3515 194.57 14.3166C194.276 14.2986 193.905 14.2757 193.905 13.8857C193.905 13.474 194.379 13.474 194.634 13.474C195.029 13.474 195.355 13.4885 195.667 13.5089C196.01 13.5234 196.258 13.5342 196.529 13.5342C196.891 13.5342 197.351 13.5186 197.8 13.5017C198.246 13.4873 198.641 13.474 198.927 13.474C199.321 13.474 199.729 13.474 199.729 13.9049C199.729 14.2769 199.319 14.3034 199.12 14.3166C198.013 14.4129 198.013 14.6657 198.013 14.762C198.013 14.8222 198.039 14.892 198.103 14.9955L200.644 18.7847C200.721 18.9219 200.751 18.94 200.754 18.9412C200.771 18.94 200.812 18.94 200.916 18.7847L203.26 15.3686C203.379 15.1893 203.389 15.0328 203.389 14.8992C203.389 14.585 202.994 14.39 202.22 14.3142C201.947 14.2781 201.582 14.2299 201.582 13.864C201.582 13.474 201.984 13.474 202.308 13.474C202.603 13.474 202.916 13.4873 203.23 13.5041C203.561 13.5198 203.877 13.5342 204.189 13.5342C204.419 13.5342 204.64 13.5246 204.868 13.5113C205.252 13.4885 205.55 13.474 205.887 13.474C206.282 13.474 206.69 13.474 206.69 13.864C206.69 14.0049 206.628 14.2456 206.217 14.2949C205.365 14.3973 204.705 14.7897 204.259 15.4613L201.431 19.6959V19.9414L205.333 25.8021C205.636 26.2559 205.979 26.4882 206.452 26.5532C206.765 26.6098 207.118 26.6736 207.118 27.0419C207.118 27.4536 206.657 27.4536 206.352 27.4536Z" fill="#0C2577"/>
<path d="M218.516 27.4536C218.256 27.4536 217.984 27.4367 217.682 27.4175C217.346 27.3946 216.986 27.3741 216.584 27.3741C216.188 27.3741 215.862 27.3946 215.56 27.4175C215.288 27.4367 215.031 27.4536 214.758 27.4536C214.54 27.4536 214.083 27.4536 214.083 27.0419C214.083 26.883 214.16 26.682 214.52 26.6327L214.716 26.6086C215.368 26.5328 215.642 26.4593 215.642 26.2066V14.6211C215.642 14.455 215.642 14.455 215.51 14.455H214.189C213.55 14.455 213.233 14.7343 212.913 15.0701C212.523 15.4781 212.186 15.9692 211.851 16.6156C211.773 16.7276 211.654 16.8985 211.432 16.8985C211.224 16.8985 211.077 16.7456 211.077 16.529C211.077 16.4615 211.077 16.405 211.104 16.3147L211.922 13.1021C211.965 12.9323 212.13 12.7578 212.363 12.7578C212.549 12.7578 212.751 12.8998 212.751 13.2104C212.751 13.3308 212.774 13.5342 212.936 13.5342H220.609C220.903 13.5342 221.045 13.3633 221.192 13.0684C221.276 12.9239 221.357 12.818 221.576 12.818C221.801 12.8553 221.93 13.0082 221.93 13.2297L221.767 16.4002C221.769 16.6602 221.587 16.7817 221.416 16.7817C221.262 16.7817 221.058 16.683 220.995 16.411C220.658 15.058 220.305 14.455 219.09 14.455H217.62C217.529 14.455 217.477 14.455 217.477 14.6392V26.2066C217.477 26.4762 217.873 26.5316 218.529 26.5869C218.724 26.617 219.121 26.682 219.121 27.0419C219.121 27.4536 218.666 27.4536 218.516 27.4536Z" fill="#0C2577"/>
<path d="M235.446 27.4536C234.617 27.4536 233.642 27.4343 232.659 27.4175L232.411 27.4139C231.365 27.3934 230.331 27.3741 229.468 27.3741C229.189 27.3741 228.863 27.3934 228.529 27.4127C228.139 27.4343 227.818 27.4536 227.539 27.4536C227.22 27.4536 226.683 27.4536 226.683 27.0215C226.683 26.6748 227.037 26.5894 227.171 26.5556C228.192 26.3474 228.295 26.2018 228.295 25.6697V15.4938C228.295 14.78 228.135 14.5236 227.175 14.4129C226.696 14.3575 226.593 14.1156 226.593 13.9242C226.593 13.6979 226.855 13.5342 227.217 13.5342H235.643C236.016 13.5342 236.249 13.7533 236.249 14.1036V16.3881C236.249 16.6951 236.056 16.8612 235.877 16.8612C235.741 16.8612 235.547 16.7902 235.383 16.4531C234.951 15.3867 234.586 14.4767 232.995 14.4767H230.561C230.365 14.4767 230.13 14.5321 230.13 14.7993V19.1133C230.13 19.2481 230.141 19.3191 230.382 19.3191H232.26C233.359 19.3191 233.716 19.0326 234.082 17.8627C234.165 17.5208 234.364 17.4474 234.515 17.4474C234.786 17.4474 234.923 17.6544 234.923 18.0589C234.923 18.3188 234.905 18.5572 234.883 18.8099C234.857 19.1638 234.834 19.4575 234.834 19.8271C234.834 20.2026 234.855 20.4963 234.877 20.7924C234.899 21.0885 234.923 21.3858 234.923 21.7566C234.923 22.1466 234.692 22.2862 234.496 22.2862C234.275 22.2862 234.075 22.1153 234.023 21.8769C233.785 20.4096 233.303 20.258 232.26 20.258H230.347C230.247 20.258 230.13 20.2929 230.13 20.4638V25.0944C230.13 25.9574 230.791 26.4317 231.991 26.4317C234.584 26.4317 235.34 25.9899 236.033 24.0568C236.12 23.863 236.255 23.7679 236.45 23.7679C236.648 23.7679 236.8 23.9196 236.8 24.1206L236.53 26.9216C236.468 27.3693 236.101 27.4536 235.446 27.4536Z" fill="#0C2577"/>
<path d="M246.332 27.4548C245.979 27.4548 245.618 27.4343 245.264 27.4151C244.847 27.3934 244.481 27.3741 244.129 27.3741C243.769 27.3741 243.453 27.3934 243.134 27.4115C242.747 27.4343 242.422 27.4548 242.059 27.4548C241.577 27.4548 241.504 27.208 241.504 27.0648C241.504 26.6519 242.018 26.6218 242.189 26.6122C243.24 26.5388 243.24 26.1536 243.24 26.0092V14.8799C243.24 14.5778 243.204 14.4165 242.391 14.3154C242.119 14.2829 241.808 14.2432 241.808 13.8652C241.808 13.6859 241.914 13.4752 242.414 13.4752C242.773 13.4752 243.101 13.4897 243.427 13.5077C243.754 13.5222 244.042 13.5354 244.346 13.5354C244.667 13.5354 245.01 13.5222 245.362 13.5077C245.778 13.4897 246.177 13.4752 246.563 13.4752C248.934 13.4752 250.656 15.1519 250.656 17.463C250.656 19.8018 248.808 21.5688 247.156 21.5892C246.502 21.5892 245.699 21.5892 244.96 21.0079L245.072 26.0092C245.072 26.2716 245.175 26.558 246.399 26.6531C246.54 26.6628 246.957 26.6989 246.957 27.0648C246.957 27.4548 246.55 27.4548 246.332 27.4548ZM246.044 14.2564C245.146 14.2564 245.072 14.5357 245.072 14.8209V19.7488C245.072 20.1725 245.891 20.5685 246.385 20.5685C247.744 20.5685 248.73 19.3468 248.73 17.6616C248.73 16.0908 248.028 14.2564 246.044 14.2564Z" fill="#0C2577"/>
</svg>
